<svg width="225" height="38" viewBox="0 0 225 38" fill="none" xmlns="http://www.w3.org/2000/svg">
<g clip-path="url(#clip0_306_2915)">
<path d="M2.07022 19.8844L19.5019 35.8719L2.07022 35.7838V19.8844Z" fill="#D9E7FF"/>
<path d="M21.0326 18.4477H0.782227V1.59265H4.26182C13.5205 1.59265 21.0259 9.13572 21.0259 18.4409L21.0326 18.4477Z" fill="#FFBA63"/>
<path d="M22.5229 19.1728C22.2802 8.80366 13.9049 0.474426 3.60097 0.474426H0V38H22.5364V19.2881C22.5364 19.2474 22.5297 19.2135 22.5229 19.1728ZM2.83222 3.3412H3.60771C11.5177 3.3412 18.1128 9.1493 19.4547 16.7669H2.83222V3.3412ZM2.83222 21.5584L17.5935 35.1332H2.83222V21.5584ZM19.7042 33.2017L4.94965 19.6337H19.7042V33.2017Z" fill="white"/>
<path d="M51.7623 30.2197H47.4667V5.17103C47.4667 2.32459 45.1672 0.0135498 42.335 0.0135498H40.6424V37.695H42.2204H44.0748H51.769C62.7742 37.695 71.6957 27.9222 71.6957 15.8587H64.8714C64.8714 23.7881 59.0047 30.2129 51.769 30.2129L51.7623 30.2197Z" fill="white"/>
<path d="M103.248 15.8655C103.248 23.7949 97.3813 30.2197 90.1456 30.2197H78.8977V37.7018H90.1456C101.151 37.7018 110.072 27.929 110.072 15.8655V0H103.248V15.8655Z" fill="white"/>
<path d="M94.4817 5.69288C94.4817 2.54824 91.9529 0 88.8239 0H78.8977V7.48208H94.4884V5.69288H94.4817Z" fill="white"/>
<path d="M177.5 7.84805C177.473 12.0296 174.937 15.5606 171.457 16.7195H164.991C162.475 16.7195 160.432 18.773 160.432 21.3009V23.5103H170.668V37.695H177.493V21.7685C181.613 18.7459 184.324 13.6087 184.324 7.7735H177.5V7.84127V7.84805Z" fill="white"/>
<path d="M120.241 19.9183H137.767V22.7376C137.767 26.8717 134.713 30.2197 130.943 30.2197H120.248V37.7018H130.943C138.482 37.7018 144.599 31.0059 144.599 22.7376V19.9183H151.423V12.4362H120.248V19.9183H120.241Z" fill="white"/>
<path d="M120.241 7.48208H145.522C148.779 7.48208 151.423 4.8254 151.423 1.55199V0H120.248V7.48208H120.241Z" fill="white"/>
<path d="M207.15 0H199.719C196.462 0 193.819 2.65668 193.819 5.93009V7.48208H218.169C218.169 11.6162 215.114 14.9642 211.345 14.9642V11.2231H204.52V22.7376C204.52 26.8718 201.466 30.2197 197.696 30.2197H193.825V37.7018H197.696C205.235 37.7018 211.351 31.0059 211.351 22.7376V22.4394C218.89 22.4394 225.007 15.7435 225.007 7.48208V0H207.157H207.15Z" fill="white"/>
</g>
<defs>
<clipPath id="clip0_306_2915">
<rect width="225" height="38" fill="white"/>
</clipPath>
</defs>
</svg>
