<svg width="230" height="38" viewBox="0 0 230 38" fill="none" xmlns="http://www.w3.org/2000/svg">
<g clip-path="url(#clip0_306_1784)">
<path d="M2.11621 19.8845L19.9352 35.872L2.11621 35.7839V19.8845Z" fill="#D9E7FF"/>
<path d="M21.5 18.4478H0.799622V1.59277H4.35654C13.821 1.59277 21.4931 9.13584 21.4931 18.441L21.5 18.4478Z" fill="#FFBA63"/>
<path d="M23.0234 19.1728C22.7753 8.8036 14.2139 0.474365 3.68099 0.474365H0V38H23.0372V19.288C23.0372 19.2473 23.0303 19.2134 23.0234 19.1728ZM2.89516 3.34114H3.68789C11.7737 3.34114 18.5153 9.14924 19.887 16.7669H2.89516V3.34114ZM2.89516 21.5584L17.9845 35.1332H2.89516V21.5584ZM20.1421 33.2017L5.05964 19.6336H20.1421V33.2017Z" fill="#142B6B"/>
<path d="M52.9126 30.2198H48.5216V5.17115C48.5216 2.32471 46.171 0.0136719 43.2758 0.0136719H41.5456V37.6951H43.1586H45.0543H52.9194C64.1692 37.6951 73.289 27.9224 73.289 15.8589H66.313C66.313 23.7882 60.3159 30.2131 52.9194 30.2131L52.9126 30.2198Z" fill="#142B6B"/>
<path d="M105.542 15.8655C105.542 23.7949 99.5453 30.2197 92.1489 30.2197H80.6509V37.7018H92.1489C103.399 37.7018 112.518 27.929 112.518 15.8655V0H105.542V15.8655Z" fill="#142B6B"/>
<path d="M96.5812 5.69288C96.5812 2.54824 93.9963 0 90.7978 0H80.6509V7.48208H96.5881V5.69288H96.5812Z" fill="#142B6B"/>
<path d="M181.444 7.84799C181.416 12.0295 178.825 15.5605 175.268 16.7194H168.657C166.086 16.7194 163.997 18.7729 163.997 21.3008V23.5102H174.461V37.695H181.437V21.7684C185.649 18.7458 188.42 13.6086 188.42 7.77344H181.444V7.84121V7.84799Z" fill="#142B6B"/>
<path d="M122.913 19.9184H140.829V22.7377C140.829 26.8718 137.706 30.2198 133.853 30.2198H122.92V37.7018H133.853C141.56 37.7018 147.812 31.0059 147.812 22.7377V19.9184H154.788V12.4363H122.92V19.9184H122.913Z" fill="#142B6B"/>
<path d="M122.913 7.48208H148.756C152.086 7.48208 154.788 4.8254 154.788 1.55199V0H122.92V7.48208H122.913Z" fill="#142B6B"/>
<path d="M211.754 0H204.157C200.828 0 198.126 2.65668 198.126 5.93009V7.48208H223.017C223.017 11.6162 219.894 14.9642 216.041 14.9642V11.2231H209.065V22.7376C209.065 26.8718 205.943 30.2197 202.089 30.2197H198.132V37.7018H202.089C209.796 37.7018 216.048 31.0059 216.048 22.7376V22.4394C223.755 22.4394 230.007 15.7435 230.007 7.48208V0H211.76H211.754Z" fill="#142B6B"/>
</g>
<defs>
<clipPath id="clip0_306_1784">
<rect width="230" height="38" fill="white"/>
</clipPath>
</defs>
</svg>
